<?xml version="1.0" encoding="UTF-8" standalone="no"?>
<svg
   xmlns:dc="http://purl.org/dc/elements/1.1/"
   xmlns:cc="http://creativecommons.org/ns#"
   xmlns:rdf="http://www.w3.org/1999/02/22-rdf-syntax-ns#"
   xmlns:svg="http://www.w3.org/2000/svg"
   xmlns="http://www.w3.org/2000/svg"
   xmlns:xlink="http://www.w3.org/1999/xlink"
   xmlns:sodipodi="http://sodipodi.sourceforge.net/DTD/sodipodi-0.dtd"
   xmlns:inkscape="http://www.inkscape.org/namespaces/inkscape"
   version="1.1"
   width="661.90009"
   height="200.34377"
   style="fill:#221f1f"
   id="svg1936"
   sodipodi:docname="logo.svg"
   inkscape:version="0.92.3 (d244b95, 2018-08-02)">
  <metadata
     id="metadata3810">
    <rdf:RDF>
      <cc:Work
         rdf:about="">
        <dc:format>image/svg+xml</dc:format>
        <dc:type
           rdf:resource="http://purl.org/dc/dcmitype/StillImage" />
        <dc:title />
      </cc:Work>
    </rdf:RDF>
  </metadata>
  <defs
     id="defs3808" />
  <sodipodi:namedview
     pagecolor="#ffffff"
     bordercolor="#666666"
     borderopacity="1"
     objecttolerance="10"
     gridtolerance="10"
     guidetolerance="10"
     inkscape:pageopacity="0"
     inkscape:pageshadow="2"
     inkscape:window-width="1853"
     inkscape:window-height="1025"
     id="namedview3806"
     showgrid="false"
     inkscape:zoom="1"
     inkscape:cx="714.13603"
     inkscape:cy="-105.75473"
     inkscape:window-x="67"
     inkscape:window-y="27"
     inkscape:window-maximized="1"
     inkscape:current-layer="g44" />
  <g
     id="g44"
     transform="translate(-0.36397,18.59849)">
    <path
       style="fill:#ff9900"
       id="path8"
       d="m 374.00642,142.18404 c -34.99948,25.79739 -85.72909,39.56123 -129.40634,39.56123 -61.24255,0 -116.37656,-22.65135 -158.08757,-60.32496 -3.2771,-2.96252 -0.34083,-6.9999 3.59171,-4.69283 45.01431,26.19064 100.67269,41.94697 158.16623,41.94697 38.77469,0 81.4295,-8.02237 120.6499,-24.67006 5.92501,-2.51683 10.87999,3.88009 5.08607,8.17965"
       inkscape:connector-curvature="0" />
    <path
       style="fill:#ff9900"
       id="path10"
       d="m 388.55678,125.53635 c -4.45688,-5.71527 -29.57261,-2.70033 -40.84585,-1.36327 -3.43442,0.41947 -3.95874,-2.56925 -0.86517,-4.71905 20.00346,-14.07844 52.82696,-10.01483 56.65462,-5.2958 3.82764,4.74526 -0.99624,37.64741 -19.79373,53.35128 -2.88385,2.41195 -5.63662,1.12734 -4.35198,-2.07113 4.2209,-10.53917 13.68519,-34.16054 9.20211,-39.90203"
       inkscape:connector-curvature="0" />
    <path
       id="path12"
       d="M 348.49744,20.06598 V 6.38079 c 0,-2.07113 1.57301,-3.46062 3.46062,-3.46062 h 61.26875 c 1.96628,0 3.53929,1.41571 3.53929,3.46062 v 11.71893 c -0.0262,1.96626 -1.67788,4.53551 -4.61418,8.59912 l -31.74859,45.32893 c 11.79759,-0.28837 24.25059,1.46814 34.94706,7.49802 2.41195,1.36327 3.06737,3.35575 3.25089,5.32203 V 99.4506 c 0,1.99248 -2.20222,4.32576 -4.5093,3.1198 -18.84992,-9.88376 -43.887,-10.95865 -64.72939,0.10487 -2.12356,1.15354 -4.35199,-1.15354 -4.35199,-3.14602 V 85.66054 c 0,-2.22843 0.0262,-6.02989 2.25463,-9.41186 l 36.78224,-52.74829 h -32.01076 c -1.96626,0 -3.53927,-1.38948 -3.53927,-3.43441"
       inkscape:connector-curvature="0" />
    <path
       id="path14"
       d="m 124.99883,105.45424 h -18.64017 c -1.78273,-0.13107 -3.19845,-1.46813 -3.32954,-3.17224 V 6.61676 c 0,-1.91383 1.59923,-3.43442 3.59171,-3.43442 h 17.38176 c 1.80898,0.0786 3.25089,1.46814 3.38199,3.19845 v 12.50545 h 0.34082 c 4.53551,-12.08598 13.05597,-17.7226 24.53896,-17.7226 11.66649,0 18.95477,5.63662 24.19814,17.7226 4.5093,-12.08598 14.76008,-17.7226 25.74495,-17.7226 7.81262,0 16.35931,3.22467 21.57646,10.46052 5.89879,8.04857 4.69281,19.74128 4.69281,29.99208 l -0.0262,60.37739 c 0,1.91383 -1.59923,3.46061 -3.59171,3.46061 h -18.61397 c -1.86138,-0.13107 -3.35574,-1.62543 -3.35574,-3.46061 V 51.29025 c 0,-4.03739 0.36702,-14.10466 -0.52434,-17.93233 -1.38949,-6.42311 -5.55797,-8.23209 -10.95865,-8.23209 -4.5093,0 -9.22833,3.01494 -11.14216,7.83885 -1.91383,4.8239 -1.73031,12.89867 -1.73031,18.32557 v 50.70338 c 0,1.91383 -1.59923,3.46061 -3.59171,3.46061 h -18.61395 c -1.88761,-0.13107 -3.35576,-1.62543 -3.35576,-3.46061 L 152.946,51.29025 c 0,-10.67025 1.75651,-26.37415 -11.48298,-26.37415 -13.39682,0 -12.87248,15.31063 -12.87248,26.37415 v 50.70338 c 0,1.91383 -1.59923,3.46061 -3.59171,3.46061"
       inkscape:connector-curvature="0" />
    <path
       id="path16"
       d="m 469.51439,1.16364 c 27.65877,0 42.62858,23.75246 42.62858,53.95427 0,29.17934 -16.54284,52.32881 -42.62858,52.32881 -27.16066,0 -41.94697,-23.75246 -41.94697,-53.35127 0,-29.78234 14.96983,-52.93181 41.94697,-52.93181 m 0.15729,19.53156 c -13.73761,0 -14.60278,18.71881 -14.60278,30.38532 0,11.69271 -0.18352,36.65114 14.44549,36.65114 14.44548,0 15.12712,-20.13452 15.12712,-32.40403 0,-8.07477 -0.34082,-17.72257 -2.779,-25.3779 -2.09735,-6.65906 -6.26581,-9.25453 -12.19083,-9.25453"
       inkscape:connector-curvature="0" />
    <path
       id="path18"
       d="M 548.00762,105.45424 H 529.4461 c -1.86141,-0.13107 -3.35577,-1.62543 -3.35577,-3.46061 l -0.0262,-95.69149 c 0.1573,-1.75653 1.7041,-3.1198 3.59171,-3.1198 h 17.27691 c 1.62543,0.0786 2.96249,1.17976 3.32954,2.67412 v 14.62899 h 0.3408 c 5.21717,-13.0822 12.53165,-19.32181 25.40412,-19.32181 8.36317,0 16.51662,3.01494 21.75999,11.27324 4.87633,7.65532 4.87633,20.5278 4.87633,29.78233 v 60.22011 c -0.20973,1.67786 -1.75653,3.01492 -3.59169,3.01492 h -18.69262 c -1.70411,-0.13107 -3.11982,-1.38948 -3.30332,-3.01492 V 50.47753 c 0,-10.46052 1.20597,-25.77117 -11.66651,-25.77117 -4.5355,0 -8.70399,3.04117 -10.77512,7.65532 -2.62167,5.84637 -2.96249,11.66651 -2.96249,18.11585 v 51.5161 c -0.0262,1.91383 -1.65166,3.46061 -3.64414,3.46061"
       inkscape:connector-curvature="0" />
    <use
       id="use28"
       transform="translate(244.36719)"
       xlink:href="#path30"
       x="0"
       y="0"
       width="100%"
       height="100%" />
    <path
       id="path30"
       d="M 55.288261,59.75829 V 55.7209 c -13.475471,0 -27.711211,2.88385 -27.711211,18.77125 0,8.04857 4.16847,13.50169 11.32567,13.50169 5.24337,0 9.93618,-3.22467 12.8987,-8.46805 3.670341,-6.44935 3.486841,-12.50544 3.486841,-19.7675 m 18.79747,45.43378 c -1.23219,1.10111 -3.01495,1.17976 -4.40444,0.4457 -6.18716,-5.1385 -7.28828,-7.52423 -10.69647,-12.42678 -10.224571,10.4343 -17.460401,13.55409 -30.726141,13.55409 -15.67768,0 -27.89471,-9.67401 -27.89471,-29.04824 0,-15.12713 8.20587,-25.43035 19.87236,-30.46398 10.1197,-4.45688 24.25058,-5.24337 35.051931,-6.47556 v -2.41195 c 0,-4.43066 0.34082,-9.67403 -2.25465,-13.50167 -2.280881,-3.43442 -6.632861,-4.85013 -10.460531,-4.85013 -7.10475,0 -13.44924,3.64414 -14.99603,11.19459 -0.31461,1.67789 -1.5468,3.32955 -3.22467,3.4082 L 6.26276,32.67628 C 4.74218,32.33548 3.0643,31.10327 3.48377,28.76999 7.65225,6.85271 27.44596,0.24605 45.16856,0.24605 c 9.071011,0 20.921021,2.41195 28.078221,9.28076 9.07104,8.46804 8.20587,19.7675 8.20587,32.06321 v 29.04826 c 0,8.73022 3.61794,12.55786 7.02613,17.27691 1.20597,1.67786 1.46814,3.69656 -0.05244,4.95497 -3.80144,3.17225 -10.56538,9.07104 -14.28819,12.37436 l -0.05242,-0.0525"
       inkscape:connector-curvature="0" />
    <g
       id="g26"
       transform="translate(-19)">
      <a
         id="a6080"
         transform="matrix(1.3199569,0,0,0.83428364,-161.93527,9.819699)">
        <text
           xml:space="preserve"
           style="font-style:normal;font-weight:normal;font-size:134.27365112px;line-height:1.25;font-family:sans-serif;letter-spacing:0px;word-spacing:0px;fill:#ff0000;fill-opacity:1;stroke:none;stroke-width:4.69957781;stroke-miterlimit:4;stroke-dasharray:none"
           x="414.80212"
           y="-123.82431"
           id="text50"
           transform="matrix(0.83855885,0.4225741,-0.47924491,0.95101675,0,0)"><tspan
             sodipodi:role="line"
             x="414.80212"
             y="-123.82431"
             id="tspan48"
             style="stroke-width:4.69957781"><tspan
               x="414.80212"
               y="-123.82431"
               id="tspan46"
               style="stroke-width:4.69957781">Off</tspan></tspan></text>
      </a>
    </g>
    <path
       style="fill:#ff0000;stroke:none;stroke-width:10;stroke-miterlimit:4;stroke-dasharray:none;stroke-opacity:1"
       id="path52"
       d="m 395.25421,79.373459 c 10.18614,4.211411 20.88856,7.039241 31.43443,10.195718 10.56924,2.890924 20.99473,6.248153 31.42321,9.600653 7.25738,2.26091 14.0485,5.63069 20.75548,9.15337 6.87188,3.98078 14.19339,7.08998 21.44042,10.30663 9.20277,4.07017 17.99237,8.95319 26.6658,14.03289 7.21032,4.23057 13.95143,9.18174 21.11551,13.48641 6.33016,3.75052 13.15357,6.39226 20.12603,8.65128 5.84326,1.68039 11.63138,3.54976 17.49072,5.17034 0,0 -11.92787,8.17996 -11.92787,8.17996 v 0 c -5.87541,-1.65179 -11.70823,-3.4534 -17.55421,-5.20641 -7.03268,-2.33967 -13.90393,-5.1029 -20.27068,-8.94903 -7.1178,-4.33287 -13.82693,-9.29832 -21.00596,-13.53656 -8.61574,-5.09318 -17.37419,-9.949 -26.59662,-13.87438 -7.32305,-3.16837 -14.67701,-6.32039 -21.59376,-10.32457 -6.64311,-3.46136 -13.39591,-6.71278 -20.54886,-9.00234 -10.31665,-3.41898 -20.62148,-6.87357 -31.09958,-9.77807 -10.76016,-3.212366 -21.62485,-6.133074 -32.20937,-9.895871 0,0 12.35531,-8.21002 12.35531,-8.21002 z"
       inkscape:connector-curvature="0" />
    <path
       style="fill:#ff0000;stroke:none;stroke-width:10;stroke-miterlimit:4;stroke-dasharray:none;stroke-opacity:1"
       id="path54"
       d="m 389.26453,94.197632 c 4.55713,1.577208 9.17086,2.986488 13.7849,4.386548 5.33017,1.59044 10.66385,3.16895 15.98896,4.77631 7.93004,2.41256 15.82315,4.94544 23.68572,7.56905 7.68533,2.49958 15.1005,5.70563 22.40449,9.14289 7.20369,3.57021 14.48115,6.98621 21.74682,10.42733 8.82401,4.1825 17.51413,8.64393 25.98298,13.50547 7.39719,4.36999 14.60507,9.04766 21.9725,13.46647 5.16168,3.12947 10.5789,5.78056 16.13339,8.1279 3.04572,1.2631 6.16787,2.32356 9.29489,3.36312 0,0 -12.14102,8.23073 -12.14102,8.23073 v 0 c -3.13681,-1.07527 -6.26906,-2.17278 -9.31489,-3.48938 -5.56542,-2.41696 -10.97694,-5.15755 -16.12828,-8.37536 -7.29773,-4.474 -14.44168,-9.19722 -21.83929,-13.50785 -8.46112,-4.80781 -17.07116,-9.35052 -25.92105,-13.40714 -7.32082,-3.38858 -14.6461,-6.76639 -21.87527,-10.3482 -7.23253,-3.42892 -14.59007,-6.58951 -22.21167,-9.06401 -7.88644,-2.62226 -15.81379,-5.12073 -23.79659,-7.43483 -5.35936,-1.55749 -10.72271,-3.10172 -16.05777,-4.74136 -4.66291,-1.41669 -9.31435,-2.87018 -13.97629,-4.28964 0,0 12.26747,-8.338048 12.26747,-8.338048 z"
       inkscape:connector-curvature="0" />
  </g>
</svg>
